<svg id="Layer_1" data-name="Layer 1" xmlns="http://www.w3.org/2000/svg" xmlns:xlink="http://www.w3.org/1999/xlink" viewBox="0 0 960 540"><defs><style>.cls-1,.cls-14,.cls-18,.cls-23,.cls-30,.cls-37,.cls-39,.cls-52,.cls-54,.cls-9{fill:none;}.cls-2{clip-path:url(#clip-path);}.cls-11,.cls-3{fill:#fff;}.cls-4{font-size:15px;}.cls-11,.cls-26,.cls-33,.cls-35,.cls-4,.cls-48{font-family:Helvetica;}.cls-5{letter-spacing:-0.02em;}.cls-6{letter-spacing:-0.05em;}.cls-7{clip-path:url(#clip-path-2);}.cls-8{fill:#4472c4;}.cls-52,.cls-9{stroke:#4472c4;}.cls-14,.cls-18,.cls-23,.cls-30,.cls-37,.cls-39,.cls-52,.cls-54,.cls-9{stroke-miterlimit:8;}.cls-10{clip-path:url(#clip-path-3);}.cls-11{font-size:18px;}.cls-12{clip-path:url(#clip-path-4);}.cls-13{fill:#70ad47;}.cls-14,.cls-37{stroke:#70ad47;}.cls-15{clip-path:url(#clip-path-5);}.cls-16{clip-path:url(#clip-path-6);}.cls-17,.cls-35{fill:#be6427;}.cls-18{stroke:#be6427;}.cls-19{clip-path:url(#clip-path-7);}.cls-20{letter-spacing:-0.04em;}.cls-21{clip-path:url(#clip-path-8);}.cls-22{fill:#7030a0;}.cls-23{stroke:#942192;}.cls-24{clip-path:url(#clip-path-9);}.cls-25{clip-path:url(#clip-path-10);}.cls-26,.cls-33,.cls-35{font-size:10px;}.cls-27{clip-path:url(#clip-path-11);}.cls-28{clip-path:url(#clip-path-12);}.cls-29{clip-path:url(#clip-path-13);}.cls-30,.cls-39{stroke:#f19e65;}.cls-30{stroke-width:3px;}.cls-31{fill:#f19e65;}.cls-32{clip-path:url(#clip-path-15);}.cls-33{fill:#5a8a39;}.cls-34{clip-path:url(#clip-path-16);}.cls-36{clip-path:url(#clip-path-17);}.cls-37,.cls-39,.cls-52,.cls-54{stroke-width:3px;}.cls-38{clip-path:url(#clip-path-19);}.cls-40{clip-path:url(#clip-path-21);}.cls-41{clip-path:url(#clip-path-22);}.cls-42{clip-path:url(#clip-path-23);}.cls-43{clip-path:url(#clip-path-25);}.cls-44{clip-path:url(#clip-path-27);}.cls-45{clip-path:url(#clip-path-29);}.cls-46{clip-path:url(#clip-path-30);}.cls-47{clip-path:url(#clip-path-31);}.cls-48{font-size:19px;}.cls-49{clip-path:url(#clip-path-32);}.cls-50{clip-path:url(#clip-path-33);}.cls-51{clip-path:url(#clip-path-34);}.cls-53{clip-path:url(#clip-path-35);}.cls-54{stroke:#7030a0;}.cls-55{clip-path:url(#clip-path-36);}.cls-56{clip-path:url(#clip-path-38);}.cls-57{clip-path:url(#clip-path-40);}.cls-58{clip-path:url(#clip-path-42);}.cls-59{clip-path:url(#clip-path-43);}.cls-60{clip-path:url(#clip-path-44);}</style><clipPath id="clip-path"><rect class="cls-1" width="960" height="540"/></clipPath><clipPath id="clip-path-2"><rect class="cls-1" x="80.88" y="55.5" width="118" height="55.46"/></clipPath><clipPath id="clip-path-3"><rect class="cls-1" x="85.58" y="56.73" width="108.6" height="53"/></clipPath><clipPath id="clip-path-4"><rect class="cls-1" x="162.59" y="348.57" width="593.86" height="55.46"/></clipPath><clipPath id="clip-path-5"><rect class="cls-1" x="167.29" y="360.8" width="584.46" height="31"/></clipPath><clipPath id="clip-path-6"><rect class="cls-1" x="335.5" y="56.49" width="253.9" height="55.46"/></clipPath><clipPath id="clip-path-7"><rect class="cls-1" x="340.2" y="68.71" width="244.5" height="31"/></clipPath><clipPath id="clip-path-8"><rect class="cls-1" x="757.75" y="60.54" width="129.33" height="55.46"/></clipPath><clipPath id="clip-path-9"><rect class="cls-1" x="762.45" y="61.77" width="119.93" height="53"/></clipPath><clipPath id="clip-path-10"><rect class="cls-1" x="239.68" y="60.38" width="53.77" height="19.2"/></clipPath><clipPath id="clip-path-11"><rect class="cls-1" x="629.71" y="49.1" width="79.35" height="19.2"/></clipPath><clipPath id="clip-path-12"><rect class="cls-1" x="611.03" y="102.01" width="135.49" height="19.2"/></clipPath><clipPath id="clip-path-13"><rect class="cls-1" x="124.51" y="220.75" width="275.4" height="19.01" transform="translate(-76.52 314.16) rotate(-55.2)"/></clipPath><clipPath id="clip-path-15"><rect class="cls-1" x="222.82" y="306.1" width="47.63" height="31.2"/></clipPath><clipPath id="clip-path-16"><rect class="cls-1" x="189.85" y="220.28" width="68.46" height="31.2"/></clipPath><clipPath id="clip-path-17"><rect class="cls-1" x="190.96" y="220.46" width="252.55" height="19.01" transform="translate(-28.71 413.94) rotate(-63.94)"/></clipPath><clipPath id="clip-path-19"><rect class="cls-1" x="255.85" y="220.46" width="236.85" height="19.01" transform="translate(47.06 523.05) rotate(-73.42)"/></clipPath><clipPath id="clip-path-21"><rect class="cls-1" x="353.77" y="306.1" width="61.52" height="31.2"/></clipPath><clipPath id="clip-path-22"><rect class="cls-1" x="330.12" y="213.78" width="50.31" height="43.2"/></clipPath><clipPath id="clip-path-23"><rect class="cls-1" x="309.81" y="218.41" width="233.52" height="19.01" transform="translate(140.61 617.96) rotate(-81.87)"/></clipPath><clipPath id="clip-path-25"><rect class="cls-1" x="595.61" y="104.05" width="19.01" height="253.84" transform="translate(-40.85 278.24) rotate(-25.08)"/></clipPath><clipPath id="clip-path-27"><rect class="cls-1" x="649.7" y="91.77" width="19.01" height="274.45" transform="translate(-16.69 402.66) rotate(-33.57)"/></clipPath><clipPath id="clip-path-29"><rect class="cls-1" x="428.26" y="216.66" width="62.52" height="43.2"/></clipPath><clipPath id="clip-path-30"><rect class="cls-1" x="503.67" y="306.1" width="61.4" height="31.2"/></clipPath><clipPath id="clip-path-31"><rect class="cls-1" x="310.14" y="151.11" width="33.72" height="32.5"/></clipPath><clipPath id="clip-path-32"><rect class="cls-1" x="397.1" y="150.98" width="33.72" height="32.5"/></clipPath><clipPath id="clip-path-33"><rect class="cls-1" x="491.29" y="150.98" width="33.72" height="32.5"/></clipPath><clipPath id="clip-path-34"><rect class="cls-1" x="205.7" y="73.01" width="125.57" height="19.01"/></clipPath><clipPath id="clip-path-35"><rect class="cls-1" x="593.34" y="61.79" width="156.46" height="19.01"/></clipPath><clipPath id="clip-path-36"><rect class="cls-1" x="590.8" y="87.99" width="159.47" height="19.01"/></clipPath><clipPath id="clip-path-38"><rect class="cls-1" x="475.07" y="115.71" width="19.01" height="229.76"/></clipPath><clipPath id="clip-path-40"><rect class="cls-1" x="531.43" y="113.42" width="19.01" height="232.38" transform="translate(-34.81 111.91) rotate(-11.45)"/></clipPath><clipPath id="clip-path-42"><rect class="cls-1" x="578.94" y="150.98" width="33.72" height="32.5"/></clipPath><clipPath id="clip-path-43"><rect class="cls-1" x="659.64" y="306.1" width="61.52" height="31.2"/></clipPath><clipPath id="clip-path-44"><rect class="cls-1" x="545.54" y="216.23" width="56.38" height="43.2"/></clipPath></defs><g class="cls-2"><rect class="cls-3" width="960" height="540"/><text class="cls-4" transform="translate(20.86 447.28)">(1) Library alignment: metadata validation, alignment (cell ranger</text><text class="cls-4" transform="translate(449.4 447.28)">)</text><text class="cls-4" transform="translate(20.86 465.28)">(2) Library processing: basic QC filters, demultiplexing H<tspan class="cls-5" x="374.3" y="0">T</tspan><tspan x="383.21" y="0">O (HashSolo)</tspan></text><text class="cls-4" transform="translate(20.86 483.28)">(3) Sample processing: decontamination (Decontx), integration (scvi/totalVI), doublet detection (Solo), normalization, annotation (Cell<tspan class="cls-6" x="880.44" y="0">T</tspan><tspan x="888.8" y="0">ypist</tspan></text><text class="cls-4" transform="translate(940.49 483.28)">)</text><text class="cls-4" transform="translate(20.86 501.28)">(4) Sample integration (tissue-level): integration (scvi/totalVI)</text></g><g class="cls-7"><rect class="cls-8" x="82.38" y="57" width="115" height="52.46"/><rect class="cls-9" x="82.38" y="57" width="115" height="52.46"/></g><g class="cls-10"><text class="cls-11" transform="translate(120.87 79.09)">Data </text><text class="cls-11" transform="translate(104.85 101.09)">uploader</text></g><g class="cls-12"><rect class="cls-13" x="164.09" y="350.07" width="590.86" height="52.46"/><rect class="cls-14" x="164.09" y="350.07" width="590.86" height="52.46"/></g><g class="cls-15"><text class="cls-11" transform="translate(434.01 383.16)">Admin</text></g><g class="cls-16"><rect class="cls-17" x="337" y="57.99" width="250.9" height="52.46"/><rect class="cls-18" x="337" y="57.99" width="250.9" height="52.46"/></g><g class="cls-19"><text class="cls-11" transform="translate(442.28 91.08)"><tspan class="cls-20">A</tspan><tspan x="11.36" y="0">WS</tspan></text></g><g class="cls-21"><rect class="cls-22" x="759.25" y="62.04" width="126.33" height="52.46"/><rect class="cls-23" x="759.25" y="62.04" width="126.33" height="52.46"/></g><g class="cls-24"><text class="cls-11" transform="translate(776.39 84.13)">Data owne</text><text class="cls-11" transform="translate(862.45 84.13)">r</text><text class="cls-11" transform="translate(777.9 106.13)">(per donor)</text></g><g class="cls-25"><text class="cls-26" transform="translate(243.28 73.68)">Fastq files</text></g><g class="cls-27"><text class="cls-26" transform="translate(633.31 62.4)">Aligned libraries</text></g><g class="cls-28"><text class="cls-26" transform="translate(614.63 115.31)">Lib/sample/tissue config files</text></g><g class="cls-29"><g class="cls-2"><polyline class="cls-30" points="340.22 118.01 194.94 327.03 194.09 328.27"/><polygon class="cls-31" points="200.88 333.39 184.19 342.51 186.91 323.69 200.88 333.39"/></g></g><g class="cls-32"><text class="cls-33" transform="translate(227.42 319.4)">Aligne</text><text class="cls-33" transform="translate(255.22 319.4)">d</text><text class="cls-33" transform="translate(245.78 331.4)">libs</text></g><g class="cls-34"><text class="cls-35" transform="translate(194.45 233.58)">Fastq files </text><text class="cls-35" transform="translate(242.8 233.58)">+</text><text class="cls-35" transform="translate(216.96 245.58)">configs</text></g><g class="cls-36"><g class="cls-2"><polyline class="cls-37" points="262.2 342.51 363.98 134.36 364.64 133.01"/><polygon class="cls-13" points="357.14 128.98 372.26 117.43 372.43 136.45 357.14 128.98"/></g></g><g class="cls-38"><g class="cls-2"><polyline class="cls-39" points="407.78 117.43 346.14 324.45 345.71 325.88"/><polygon class="cls-31" points="353.77 328.63 340.76 342.51 337.47 323.78 353.77 328.63"/></g></g><g class="cls-40"><text class="cls-33" transform="translate(358.37 319.4)">Processe</text><text class="cls-33" transform="translate(400.06 319.4)">d</text><text class="cls-33" transform="translate(390.61 331.4)">libs</text></g><g class="cls-41"><text class="cls-35" transform="translate(333.72 227.08)">Aligned </text><text class="cls-35" transform="translate(333.72 239.08)">libs + </text><text class="cls-35" transform="translate(333.72 251.08)">configs</text></g><g class="cls-42"><g class="cls-2"><polyline class="cls-37" points="410.2 342.51 440.28 131.98 440.49 130.49"/><polygon class="cls-13" points="432.12 128.96 442.94 113.32 448.96 131.37 432.12 128.96"/></g></g><g class="cls-43"><g class="cls-2"><polyline class="cls-39" points="551.75 116.92 650.5 327.95 651.13 329.31"/><polygon class="cls-31" points="658.98 326 658.48 345.02 643.57 333.21 658.98 326"/></g></g><g class="cls-44"><g class="cls-2"><polyline class="cls-37" points="734.52 342.51 594.3 131.19 593.47 129.94"/><polygon class="cls-13" points="586.2 134.37 583.88 115.49 600.38 124.96 586.2 134.37"/></g></g><g class="cls-45"><text class="cls-35" transform="translate(433.86 229.96)">Processe</text><text class="cls-35" transform="translate(475.55 229.96)">d</text><text class="cls-35" transform="translate(457.49 241.96)">libs + </text><text class="cls-35" transform="translate(449.43 253.96)">configs</text></g><g class="cls-46"><text class="cls-33" transform="translate(508.15 319.4)">Processe</text><text class="cls-33" transform="translate(549.84 319.4)">d</text><text class="cls-33" transform="translate(518.16 331.4)">samples</text></g><g class="cls-47"><text class="cls-48" transform="translate(314.89 174.49)">(1)</text></g><g class="cls-49"><text class="cls-48" transform="translate(401.85 174.36)">(2)</text></g><g class="cls-50"><text class="cls-48" transform="translate(496.04 174.36)">(3)</text></g><g class="cls-51"><polyline class="cls-52" points="206.7 82.52 311.43 82.52 312.93 82.52"/><polygon class="cls-8" points="313.26 74.02 330.27 82.52 313.26 91.03 313.26 74.02"/></g><g class="cls-53"><polyline class="cls-54" points="594.34 71.3 729.95 71.3 731.45 71.3"/><polygon class="cls-22" points="731.79 62.79 748.8 71.3 731.79 79.8 731.79 62.79"/></g><g class="cls-55"><g class="cls-2"><polyline class="cls-54" points="749.27 97.49 610.65 97.49 609.15 97.49"/><polygon class="cls-22" points="608.82 106 591.8 97.49 608.82 88.99 608.82 106"/></g></g><g class="cls-56"><g class="cls-2"><polyline class="cls-39" points="484.57 116.71 484.57 325.63 484.57 327.13"/><polygon class="cls-31" points="493.08 327.46 484.57 344.48 476.06 327.46 493.08 327.46"/></g></g><g class="cls-57"><g class="cls-2"><polyline class="cls-37" points="563.79 342.51 521.81 135.18 521.51 133.71"/><polygon class="cls-13" points="513.11 135.07 518.07 116.71 529.79 131.7 513.11 135.07"/></g></g><g class="cls-58"><text class="cls-48" transform="translate(583.69 174.36)">(4)</text></g><g class="cls-59"><text class="cls-33" transform="translate(664.24 319.4)">Processe</text><text class="cls-33" transform="translate(705.92 319.4)">d</text><text class="cls-33" transform="translate(680.36 331.4)">tissues</text></g><g class="cls-60"><text class="cls-35" transform="translate(551.08 229.53)">Processed </text><text class="cls-35" transform="translate(552.47 241.53)">samples + </text><text class="cls-35" transform="translate(566.64 253.53)">configs</text></g></svg>